<?xml version="1.0" encoding="UTF-8"?>
<svg id="Calque_1" data-name="Calque 1" xmlns="http://www.w3.org/2000/svg" xmlns:xlink="http://www.w3.org/1999/xlink" viewBox="0 0 425.2 425.2">
  <defs>
    <style>
      .cls-1 {
        fill: #fff;
      }

      .cls-2 {
        fill: url(#Dégradé_sans_nom_657);
        stroke: #fff;
        stroke-miterlimit: 10;
        stroke-width: .49px;
      }
    </style>
    <linearGradient id="Dégradé_sans_nom_657" data-name="Dégradé sans nom 657" x1="313.45" y1="111.75" x2="111.75" y2="313.44" gradientUnits="userSpaceOnUse">
      <stop offset="0" stop-color="#0e151f"/>
      <stop offset=".15" stop-color="#0d1623"/>
      <stop offset=".32" stop-color="#0d1b30"/>
      <stop offset=".5" stop-color="#0c2345"/>
      <stop offset=".67" stop-color="#0c2e64"/>
      <stop offset=".85" stop-color="#0b3c8a"/>
      <stop offset="1" stop-color="#0a4bb1"/>
    </linearGradient>
  </defs>
  <g transform='translate(212.6 212.6) scale(1.43) translate(-212.6 -212.6)'>
  <g>
    <circle class="cls-2" cx="212.6" cy="212.6" r="142.62"/>
    <path class="cls-1" d="M212.6,355.76c-78.94,0-143.16-64.22-143.16-143.16S133.66,69.44,212.6,69.44s143.16,64.22,143.16,143.16-64.22,143.16-143.16,143.16ZM212.6,70.52c-78.34,0-142.08,63.74-142.08,142.08s63.74,142.08,142.08,142.08,142.08-63.74,142.08-142.08-63.74-142.08-142.08-142.08Z"/>
  </g>
  <g>
    <path d="M106.11,119.8h214.15c15.1,17.26,25.26,35.95,29.66,56.3h-101.51s0,174.58,0,174.58c-23.86,5.89-47.35,6.09-70.45.3v-174.88s-102.68,0-102.68,0c5.17-22.2,14.85-41.36,30.83-56.3Z"/>
    <path class="cls-1" d="M212.15,355.74c-11.61,0-23.07-1.41-34.32-4.23l-.41-.1v-174.76h-102.82l.15-.66c5.52-23.74,15.66-42.24,30.98-56.57l.16-.15h214.61l.16.19c15.47,17.69,25.49,36.71,29.78,56.54l.14.66h-101.64v174.47l-.41.1c-12.22,3.02-24.38,4.53-36.39,4.53ZM178.5,350.56c22.45,5.56,45.78,5.46,69.37-.3v-174.7h101.38c-4.31-19.34-14.14-37.91-29.23-55.22H106.32c-14.93,14.02-24.87,32.09-30.36,55.22h102.54v175Z"/>
  </g>
  <g>
    <path class="cls-1" d="M146.95,319.34c.96-1.65,3.08-2.22,4.74-1.26,1.65.95,2.22,3.08,1.26,4.73l-6.94,12.02c-.95,1.65-3.08,2.22-4.73,1.27-1.67-.96-2.24-3.09-1.27-4.74l6.94-12.02Z"/>
    <path class="cls-1" d="M273.48,318.08c1.67-.96,3.8-.39,4.74,1.26l6.94,12.02c.96,1.65.39,3.78-1.27,4.74-1.65.95-3.78.38-4.73-1.27l-6.94-12.02c-.96-1.65-.39-3.78,1.26-4.73Z"/>
    <path class="cls-1" d="M102.37,272.22c1.67-.96,3.78-.39,4.74,1.26.95,1.67.39,3.8-1.27,4.74l-12.02,6.94c-1.65.96-3.78.39-4.73-1.27-.96-1.65-.39-3.78,1.26-4.73l12.02-6.94Z"/>
    <path class="cls-1" d="M318.08,273.48c.95-1.65,3.08-2.22,4.73-1.26l12.02,6.94c1.65.96,2.22,3.08,1.27,4.73-.96,1.67-3.09,2.24-4.74,1.27l-12.02-6.94c-1.65-.95-2.22-3.08-1.26-4.74Z"/>
    <path class="cls-1" d="M87.33,209.13c1.91,0,3.47,1.55,3.47,3.47s-1.56,3.47-3.47,3.47h-13.88c-1.91,0-3.47-1.56-3.47-3.47s1.56-3.47,3.47-3.47h13.88Z"/>
    <path class="cls-1" d="M351.75,209.13c1.91,0,3.47,1.55,3.47,3.47-.01,1.91-1.56,3.47-3.47,3.47h-13.88c-1.92,0-3.47-1.56-3.47-3.47s1.55-3.47,3.47-3.47h13.88Z"/>
    <path class="cls-1" d="M279.16,90.35c.96-1.65,3.08-2.22,4.73-1.26,1.67.95,2.24,3.08,1.27,4.73l-6.94,12.02c-.95,1.67-3.08,2.24-4.74,1.27-1.65-.96-2.22-3.08-1.26-4.74l6.94-12.02Z"/>
    <path class="cls-1" d="M141.29,89.09c1.65-.96,3.78-.39,4.73,1.26l6.94,12.02c.96,1.67.39,3.78-1.26,4.74-1.65.95-3.78.39-4.74-1.27l-6.94-12.02c-.95-1.65-.38-3.78,1.27-4.73Z"/>
    <path class="cls-1" d="M212.6,69.98c1.91,0,3.47,1.56,3.47,3.47v13.88c0,1.91-1.56,3.47-3.47,3.47s-3.47-1.56-3.47-3.47v-13.88c0-1.91,1.55-3.47,3.47-3.47Z"/>
  </g>
  </g>
</svg>