<svg xmlns="http://www.w3.org/2000/svg" viewBox="0 0 2447 2452" role="img" aria-label="Slack">
  <title>Slack</title>
  <path fill="#E01E5A" d="M490.3 1534.5c0 135.5-110 245.5-245.5 245.5S-.7 1670  -.7 1534.5 109.3 1289 244.8 1289h245.5v245.5z"/>
  <path fill="#E01E5A" d="M613.1 1534.5c0-135.5 110-245.5 245.5-245.5s245.5 110 245.5 245.5v613.8c0 135.5-110 245.5-245.5 245.5s-245.5-110-245.5-245.5v-613.8z"/>
  <path fill="#36C5F0" d="M912.9 490.8c-135.5 0-245.5-110-245.5-245.5S777.4-.2 912.9-.2s245.5 110 245.5 245.5v245.5H912.9z"/>
  <path fill="#36C5F0" d="M912.9 613.6c135.5 0 245.5 110 245.5 245.5s-110 245.5-245.5 245.5H299.1c-135.5 0-245.5-110-245.5-245.5s110-245.5 245.5-245.5h613.8z"/>
  <path fill="#2EB67D" d="M1956.6 917.8c0-135.5 110-245.5 245.5-245.5s245.5 110 245.5 245.5-110 245.5-245.5 245.5h-245.5V917.8z"/>
  <path fill="#2EB67D" d="M1833.8 917.8c0 135.5-110 245.5-245.5 245.5s-245.5-110-245.5-245.5V304c0-135.5 110-245.5 245.5-245.5s245.5 110 245.5 245.5v613.8z"/>
  <path fill="#ECB22E" d="M1534 1961.1c135.5 0 245.5 110 245.5 245.5s-110 245.5-245.5 245.5-245.5-110-245.5-245.5v-245.5H1534z"/>
  <path fill="#ECB22E" d="M1534 1838.3c-135.5 0-245.5-110-245.5-245.5s110-245.5 245.5-245.5h613.8c135.5 0 245.5 110 245.5 245.5s-110 245.5-245.5 245.5H1534z"/>
</svg>

