<?xml version="1.0" encoding="UTF-8"?>
<svg id="Calque_1" data-name="Calque 1" xmlns="http://www.w3.org/2000/svg" viewBox="25.51 119.06 374.18 187.08">
  <g transform='translate(212.6 212.6) scale(1.43) translate(-212.6 -212.6)'>
  <g>
    <path d="M190.33,212.51c0-4.5,1.52-8.2,4.55-11.12,3.03-2.91,7.13-4.37,12.3-4.37,5.9,0,10.36,1.71,13.38,5.13,2.42,2.76,3.64,6.15,3.64,10.19,0,4.53-1.5,8.25-4.51,11.14-3.01,2.9-7.17,4.34-12.48,4.34-4.74,0-8.57-1.2-11.49-3.61-3.59-2.98-5.38-6.88-5.38-11.71ZM201.65,212.48c0,2.63.53,4.57,1.59,5.83,1.07,1.26,2.4,1.89,4.01,1.89s2.97-.62,4.01-1.86c1.04-1.24,1.57-3.23,1.57-5.97,0-2.55-.53-4.45-1.58-5.7s-2.36-1.87-3.91-1.87c-1.65,0-3.01.63-4.08,1.9-1.07,1.27-1.61,3.2-1.61,5.79Z"/>
    <path d="M232.25,186.47h11.55v21l8.44-9.79h13.91l-10.58,10.33,11.19,19.15h-12.73l-5.97-11.82-4.26,4.16v7.66h-11.55v-40.69Z"/>
    <path d="M303.56,215.23h-22.65c.2,1.81.69,3.16,1.47,4.05,1.09,1.28,2.52,1.92,4.27,1.92,1.11,0,2.17-.28,3.16-.83.61-.35,1.27-.97,1.97-1.86l11.13,1.03c-1.7,2.96-3.76,5.08-6.16,6.37s-5.86,1.93-10.35,1.93c-3.91,0-6.98-.55-9.22-1.65-2.24-1.1-4.1-2.85-5.56-5.25-1.47-2.4-2.21-5.21-2.21-8.45,0-4.61,1.48-8.34,4.43-11.19,2.95-2.85,7.03-4.27,12.23-4.27,4.22,0,7.55.64,9.99,1.92,2.44,1.28,4.3,3.13,5.58,5.55,1.28,2.42,1.92,5.58,1.92,9.46v1.28ZM292.07,209.81c-.22-2.18-.81-3.75-1.76-4.69-.95-.94-2.21-1.42-3.76-1.42-1.8,0-3.23.71-4.3,2.14-.69.89-1.12,2.21-1.3,3.97h11.13Z"/>
    <path d="M311.36,197.69h10.52v4.8c1.57-1.96,3.16-3.36,4.77-4.21,1.61-.84,3.57-1.26,5.88-1.26,3.13,0,5.57.93,7.34,2.79,1.77,1.86,2.65,4.73,2.65,8.62v18.74h-11.35v-16.21c0-1.85-.34-3.16-1.03-3.93s-1.65-1.15-2.89-1.15c-1.37,0-2.48.52-3.33,1.55s-1.28,2.9-1.28,5.58v14.16h-11.3v-29.48Z"/>
    <path d="M190.54,234.86h11.89v7.77h-11.89v-7.77ZM190.54,246.19h11.89v29.79h-11.89v-29.79Z"/>
    <path d="M212.86,246.19h11.1v4.35c1.6-1.81,3.21-3.1,4.84-3.87,1.63-.77,3.59-1.15,5.89-1.15,2.48,0,4.44.42,5.88,1.26,1.44.84,2.62,2.09,3.54,3.76,1.87-1.95,3.57-3.27,5.1-3.97,1.54-.7,3.43-1.05,5.69-1.05,3.32,0,5.92.95,7.79,2.85,1.86,1.9,2.8,4.87,2.8,8.91v18.71h-11.92v-16.97c0-1.35-.27-2.35-.82-3-.8-1.03-1.78-1.54-2.97-1.54-1.4,0-2.52.49-3.38,1.46s-1.28,2.53-1.28,4.68v15.37h-11.92v-16.41c0-1.31-.08-2.2-.23-2.66-.26-.75-.69-1.35-1.32-1.81-.63-.46-1.36-.69-2.2-.69-1.37,0-2.49.5-3.37,1.49s-1.32,2.62-1.32,4.88v15.2h-11.92v-29.79Z"/>
    <path d="M309.78,263.92h-23.83c.21,1.83.73,3.2,1.55,4.1,1.15,1.29,2.65,1.94,4.5,1.94,1.17,0,2.28-.28,3.33-.84.64-.35,1.33-.98,2.07-1.88l11.71,1.04c-1.79,2.99-3.95,5.14-6.48,6.44s-6.16,1.95-10.9,1.95c-4.11,0-7.34-.56-9.7-1.67-2.36-1.11-4.31-2.88-5.86-5.3-1.55-2.42-2.32-5.27-2.32-8.54,0-4.66,1.55-8.42,4.66-11.3,3.11-2.88,7.39-4.32,12.87-4.32,4.44,0,7.94.65,10.52,1.94,2.57,1.29,4.53,3.16,5.87,5.61,1.34,2.45,2.02,5.64,2.02,9.57v1.29ZM297.69,258.45c-.23-2.21-.85-3.79-1.86-4.74-1-.95-2.32-1.43-3.96-1.43-1.89,0-3.4.72-4.53,2.16-.72.9-1.18,2.23-1.37,4.01h11.71Z"/>
    <path d="M318.12,246.19h11.13v4.88c1.07-2.11,2.17-3.57,3.32-4.36,1.14-.8,2.55-1.19,4.22-1.19s3.67.52,5.75,1.57l-3.68,8.13c-1.4-.56-2.51-.84-3.33-.84-1.56,0-2.77.62-3.62,1.85-1.23,1.74-1.84,4.99-1.84,9.76v9.99h-11.95v-29.79Z"/>
  </g>
  <path d="M83.53,148.54h153.63c.96,3.56.62,27.31.62,30.64h-57.99v97.48s-38.34,0-38.34,0v-97.48s-58.63,0-58.63,0c0,0-.65-25.68.71-30.64Z"/>
  </g>
</svg>