<?xml version="1.0" encoding="UTF-8"?>
<svg id="Calque_1" data-name="Calque 1" xmlns="http://www.w3.org/2000/svg" xmlns:xlink="http://www.w3.org/1999/xlink" viewBox="0 0 425.2 425.2">
  <defs>
    <style>
      .cls-1 {
        fill: #fff;
      }

      .cls-2 {
        fill: url(#Dégradé_sans_nom_657);
        stroke: #fff;
        stroke-miterlimit: 10;
        stroke-width: .49px;
      }
    </style>
    <linearGradient id="Dégradé_sans_nom_657" data-name="Dégradé sans nom 657" x1="336.59" y1="88.84" x2="88.93" y2="336.5" gradientUnits="userSpaceOnUse">
      <stop offset="0" stop-color="#0e151f"/>
      <stop offset=".15" stop-color="#0d1623"/>
      <stop offset=".32" stop-color="#0d1b30"/>
      <stop offset=".5" stop-color="#0c2345"/>
      <stop offset=".67" stop-color="#0c2e64"/>
      <stop offset=".85" stop-color="#0b3c8a"/>
      <stop offset="1" stop-color="#0a4bb1"/>
    </linearGradient>
  </defs>
  <g transform='translate(212.6 212.6) scale(1.43) translate(-212.6 -212.6)'>
  <g>
    <path class="cls-2" d="M131.8,71.13h161.78c33.74,0,60.57,26.84,60.57,60.57v161.78c0,33.74-26.84,60.57-60.57,60.57h-161.78c-33.74,0-60.57-26.84-60.57-60.57v-161.78c0-33.74,27.6-60.57,60.57-60.57Z"/>
    <path class="cls-1" d="M293.58,355.02h-161.79c-34.5,0-61.53-27.02-61.53-61.53v-161.79c0-33.93,27.6-61.53,61.53-61.53h161.79c34.5,0,61.53,27.02,61.53,61.53v161.79c0,34.5-27.03,61.53-61.53,61.53ZM131.8,72.09c-32.87,0-59.61,26.74-59.61,59.61v161.79c0,33.43,26.18,59.61,59.61,59.61h161.79c33.43,0,59.61-26.18,59.61-59.61v-161.79c0-33.43-26.18-59.61-59.61-59.61h-161.79Z"/>
  </g>
  <g>
    <g>
      <path d="M72.52,120.15h280.5c1.76,6.51,1.13,49.86,1.13,55.94h-105.88s0,177.98,0,177.98h-70s0-177.98,0-177.98h-107.05s-1.19-46.88,1.3-55.94Z"/>
      <path class="cls-1" d="M249.23,355.02h-71.92v-177.98h-107.02l-.02-.94c-.05-1.92-1.16-47.13,1.33-56.22l.19-.7h281.97l.19.71c1.37,5.08,1.36,30.3,1.19,51.71-.01,2.07-.03,3.64-.03,4.48v.96h-105.88v177.98ZM179.23,353.1h68.09v-177.98h105.89c0-.88.01-2.08.02-3.53.09-12.05.34-43.32-.97-50.49H73.28c-2.02,9.49-1.26,47.56-1.12,54.02h107.07v177.98Z"/>
    </g>
    <g>
      <path class="cls-1" d="M147.46,318.41c.96-1.64,3.06-2.21,4.71-1.25,1.64.94,2.21,3.06,1.25,4.7l-6.9,11.95c-.94,1.64-3.06,2.21-4.7,1.27-1.66-.96-2.22-3.07-1.27-4.71l6.9-11.95Z"/>
      <path class="cls-1" d="M273.19,317.16c1.66-.96,3.77-.39,4.71,1.25l6.9,11.95c.96,1.64.39,3.76-1.27,4.71-1.64.94-3.76.38-4.7-1.27l-6.9-11.95c-.96-1.64-.39-3.76,1.25-4.7Z"/>
      <path class="cls-1" d="M103.17,271.6c1.66-.96,3.76-.39,4.71,1.25.94,1.66.39,3.77-1.27,4.71l-11.95,6.9c-1.64.96-3.76.39-4.7-1.27-.96-1.64-.39-3.76,1.25-4.7l11.95-6.9Z"/>
      <path class="cls-1" d="M317.5,272.85c.94-1.64,3.06-2.21,4.7-1.25l11.95,6.9c1.64.96,2.21,3.06,1.27,4.7-.96,1.66-3.07,2.22-4.71,1.27l-11.95-6.9c-1.64-.94-2.21-3.06-1.25-4.71Z"/>
      <path class="cls-1" d="M88.22,208.9c1.9,0,3.45,1.54,3.45,3.45s-1.55,3.45-3.45,3.45h-13.79c-1.9,0-3.45-1.55-3.45-3.45s1.55-3.45,3.45-3.45h13.79Z"/>
      <path class="cls-1" d="M350.95,208.9c1.9,0,3.45,1.54,3.45,3.45-.01,1.9-1.55,3.45-3.45,3.45h-13.79c-1.91,0-3.45-1.55-3.45-3.45s1.54-3.45,3.45-3.45h13.79Z"/>
      <path class="cls-1" d="M278.83,90.88c.96-1.64,3.06-2.21,4.7-1.25,1.66.94,2.22,3.06,1.27,4.7l-6.9,11.95c-.94,1.66-3.06,2.22-4.71,1.27-1.64-.96-2.21-3.06-1.25-4.71l6.9-11.95Z"/>
      <path class="cls-1" d="M141.83,89.63c1.64-.96,3.76-.39,4.7,1.25l6.9,11.95c.96,1.66.39,3.76-1.25,4.71-1.64.94-3.76.39-4.71-1.27l-6.9-11.95c-.94-1.64-.38-3.76,1.27-4.7Z"/>
      <path class="cls-1" d="M212.69,70.64c1.9,0,3.45,1.55,3.45,3.45v13.79c0,1.9-1.55,3.45-3.45,3.45s-3.45-1.55-3.45-3.45v-13.79c0-1.9,1.54-3.45,3.45-3.45Z"/>
    </g>
  </g>
  </g>
</svg>